<?xml version="1.0" encoding="UTF-8"?>
<svg id="Camada_2" data-name="Camada 2" xmlns="http://www.w3.org/2000/svg" viewBox="0 0 1680.78 656.31">
  <defs>
    <style>
      .cls-1, .cls-2, .cls-3 {
        stroke-width: 0px;
      }

      .cls-2 {
        fill: #606060;
      }

      .cls-3 {
        fill: #75b302;
      }
    </style>
  </defs>
  <g id="Camada_1-2" data-name="Camada 1">
    <g>
      <g>
        <path class="cls-1" d="m189.04,467.27c-75.76-75.76-75.76-198.59,0-274.35l-96.3-96.3c-8.47,8.47-16.35,17.3-23.7,26.41l32.69,50.97c-8.86,12.72-16.57,25.99-23.03,39.72l-60.4-2.82C9.72,233.13,3.6,256.09,0,279.38l53.78,27.79c-1.28,15.26-1.28,30.6,0,45.85L0,380.81c3.6,23.28,9.72,46.24,18.31,68.47l60.4-2.82c6.45,13.73,14.16,27,23.03,39.72l-32.69,50.97c7.36,9.11,15.23,17.95,23.7,26.41,8.47,8.47,17.3,16.35,26.41,23.7l50.97-32.69c12.72,8.86,25.99,16.57,39.72,23.02l-2.82,60.4c22.23,8.59,45.19,14.71,68.47,18.31l27.79-53.78c15.26,1.28,30.6,1.28,45.85,0l27.79,53.78c23.28-3.6,46.24-9.72,68.47-18.31l-2.82-60.4c13.73-6.45,27-14.16,39.72-23.02l50.97,32.69c9.11-7.36,17.94-15.23,26.41-23.7l-96.3-96.3c-75.76,75.76-198.59,75.76-274.35,0Z"/>
        <path class="cls-3" d="m260.13,396.18c-36.5-36.5-36.5-95.67,0-132.17l-46.39-46.39c-4.08,4.08-7.87,8.33-11.42,12.72l15.75,24.56c-4.27,6.13-7.98,12.52-11.09,19.14l-29.1-1.36c-4.14,10.71-7.09,21.77-8.82,32.99l25.91,13.39c-.61,7.35-.62,14.74,0,22.09l-25.91,13.39c1.73,11.22,4.68,22.28,8.82,32.99l29.1-1.36c3.11,6.61,6.82,13.01,11.09,19.14l-15.75,24.56c3.54,4.39,7.34,8.65,11.42,12.72,4.08,4.08,8.33,7.87,12.72,11.42l24.56-15.75c6.13,4.27,12.52,7.98,19.14,11.09l-1.36,29.1c10.71,4.14,21.77,7.09,32.99,8.82l13.39-25.91c7.35.62,14.74.61,22.09,0l13.39,25.91c11.22-1.74,22.28-4.68,32.99-8.82l-1.36-29.1c6.61-3.11,13.01-6.82,19.14-11.09l24.56,15.75c4.39-3.54,8.65-7.34,12.72-11.42l-46.39-46.39c-36.5,36.5-95.67,36.5-132.17,0Z"/>
        <path class="cls-3" d="m559.69,96.62C471.66,8.59,346.31-19.24,234.58,12.94c-16.37-11.37-38.31-13.56-57.24-3.76-19.8,10.24-30.68,30.75-29.82,51.64l46.96-24.3,24.66,13.55-3.18,27.96-46.96,24.3c16.56,12.77,39.59,15.74,59.38,5.49,16.55-8.56,26.93-24.3,29.41-41.44,90.35-23.36,190.34.28,261.1,71.04,97.07,97.07,105.54,249.14,25.5,355.86l41.13,41.13c102.37-129.59,93.82-318.16-25.82-437.8Z"/>
        <g>
          <path class="cls-1" d="m261.49,210.39c51.59-27.93,117.39-20.15,160.99,23.45,27.62,27.62,40.76,64.16,39.67,100.35l21.18-12.11,28.54,3.43,8.23,8.24c.95-50.85-17.92-102.01-56.72-140.81-66.34-66.34-168.76-74.57-244.07-24.73l42.18,42.18Z"/>
          <path class="cls-1" d="m528.71,320.83c-20.97-22.31-56.06-23.4-78.37-2.42-22.31,20.97-23.4,56.06-2.42,78.37,20.97,22.31,56.06,23.4,78.37,2.42,22.31-20.97,23.4-56.06,2.42-78.37Zm-43.48,67.09l-23.67-17.22,3.08-29.11,26.75-11.89,23.67,17.22-3.08,29.11-26.75,11.89Z"/>
        </g>
      </g>
      <g>
        <path class="cls-1" d="m752.68,178.45h260.1v67.6h-176.94v26.03h176.94v62.37h-176.94v57.29h-83.16v-213.29Z"/>
        <path class="cls-1" d="m1268.7,328.1c0,26.98-20,68.71-124.73,68.71-105.22.16-124.58-41.9-124.89-68.71,0-19.84,3.17-46.66,39.35-56.5-17.77-8.89-26.65-23.01-26.65-42.21,0-38.4,30.3-56.33,112.19-56.33,19.2,0,35.71,1.1,49.36,3.17,44.44,6.51,62.68,23.96,62.68,53.16,0,2.38-.16,4.76-.32,6.98h-67.44c-2.38-6.66-6.03-15.71-44.28-15.55-32.38,0-39.67,10-39.67,19.04s6.82,16.66,39.67,16.66h156v40.95h-31.27v30.63Zm-70.14-30.63h-54.59c-37.77,0-49.51,7.62-49.51,19.83s12.06,20.47,49.51,20.47,54.59-8.41,54.59-20.47v-19.83Z"/>
        <path class="cls-1" d="m1306.27,178.13h104.1l83.15,106.64,83.32-106.64h103.94v213.29h-83.15v-113.79l-83.32,113.79h-41.57l-83.32-113.79v113.79h-83.15v-213.29Z"/>
        <g>
          <path class="cls-2" d="m752.68,428.85h8.54v53.65h-8.54v-53.65Z"/>
          <path class="cls-2" d="m829.95,428.85h8.54l27.21,39.52h.38v-39.52h8.54v53.65h-8.61l-27.13-39.52h-.38v39.52h-8.54v-53.65Z"/>
          <path class="cls-2" d="m942.67,455.67c0-16.55,12.55-27.58,27.59-27.58,6.88,0,15.64,2.34,21.31,11.11l-6.2,4.37c-3.92-5.44-9.59-7.33-14.96-7.33-10.58,0-18.97,7.48-18.97,19.42s8.39,19.65,18.97,19.65c7.63,0,14.51-4.01,16.02-13.75h-13.98v-7.18h22.3c1.88,18.14-10.21,28.87-24.72,28.87s-27.36-11.04-27.36-27.59Z"/>
          <path class="cls-2" d="m1062.89,428.85h29.63v7.94h-21.09v14.89h17.84v7.71h-17.84v15.18h21.76v7.94h-30.3v-53.65Z"/>
          <path class="cls-2" d="m1160.79,428.85h8.54l27.21,39.52h.38v-39.52h8.54v53.65h-8.61l-27.13-39.52h-.38v39.52h-8.54v-53.65Z"/>
          <path class="cls-2" d="m1274.27,428.85h8.54v53.65h-8.54v-53.65Z"/>
          <path class="cls-2" d="m1351.54,428.85h29.63v7.94h-21.09v14.89h17.84v7.71h-17.84v15.18h21.76v7.94h-30.3v-53.65Z"/>
          <path class="cls-2" d="m1467.67,464.14h-9.67v18.37h-8.55v-53.65h18.14c11.33,0,18.59,7.25,18.59,17.9,0,7.79-3.92,13.53-10.5,16.02l12.85,19.72h-9.14l-11.71-18.37Zm-1.06-7.48c6.57,0,10.88-3.03,10.88-9.9s-4.31-9.97-10.88-9.97h-8.61v19.87h8.61Z"/>
          <path class="cls-2" d="m1555.75,428.85h8.55v53.65h-8.55v-53.65Zm8.39-16.62h6.95l-7.48,11.79h-6.73l7.25-11.79Z"/>
          <path class="cls-2" d="m1659.78,428.85l21.01,53.65h-9.22l-4.15-10.96h-24.03l-4.15,10.96h-9.22l20.93-53.65h8.84Zm4.68,34.76l-9.06-23.95-9.07,23.95h18.14Z"/>
        </g>
      </g>
    </g>
  </g>
</svg>